<?xml version="1.0" standalone="no"?><!DOCTYPE svg PUBLIC "-//W3C//DTD SVG 1.1//EN" "http://www.w3.org/Graphics/SVG/1.1/DTD/svg11.dtd"><svg t="1691754873131" class="icon" viewBox="0 0 1024 1024" version="1.1" xmlns="http://www.w3.org/2000/svg" p-id="3995" xmlns:xlink="http://www.w3.org/1999/xlink" width="200" height="200"><path d="M512 512m-512 0a512 512 0 1 0 1024 0 512 512 0 1 0-1024 0Z" fill="#39C179" p-id="3996"></path><path d="M638.38208 549.4784a88.71936 88.71936 0 0 0-85.77024 66.2528 245.3504 245.3504 0 0 1-144.384-144.13824c47.3088-12.288 75.776-60.8256 63.36512-108.1344a88.576 88.576 0 0 0-85.504-66.2528 88.71936 88.71936 0 0 0-88.55552 86.528 10.6496 10.6496 0 0 0-0.28672 2.4576c0 39.60832 7.168 79.01184 21.25824 117.20704a355.5328 355.5328 0 0 0 60.0064 103.69024c26.8288 32.256 66.048 61.76768 110.26432 83.37408 48.3328 23.61344 99.40992 36.1472 147.8656 36.29056a10.15808 10.15808 0 0 0 1.69984 0.1024 88.61696 88.61696 0 0 0 88.55552-88.6784 88.6784 88.6784 0 0 0-88.51456-88.6784z" fill="#FFFFFF" p-id="3997"></path></svg>