<?xml version="1.0" standalone="no"?><!DOCTYPE svg PUBLIC "-//W3C//DTD SVG 1.1//EN" "http://www.w3.org/Graphics/SVG/1.1/DTD/svg11.dtd"><svg t="1691738732490" class="icon" viewBox="0 0 1024 1024" version="1.1" xmlns="http://www.w3.org/2000/svg" p-id="4026" xmlns:xlink="http://www.w3.org/1999/xlink" width="200" height="200"><path d="M512 512m-512 0a512 512 0 1 0 1024 0 512 512 0 1 0-1024 0Z" fill="#FF3B3B" p-id="4027"></path><path d="M732.534154 459.815385c-5.513846-5.513846-11.027692-9.649231-17.92-12.406154-6.872615-4.135385-71.561846-38.557538-205.764923-39.266462-129.378462-0.039385-197.513846 35.052308-205.075693 39.857231-11.008 4.135385-20.637538 12.406154-28.199384 24.083692-6.892308 11.027692-11.697231 24.083692-11.008 35.780923v50.944c0 12.386462 4.844308 22.705231 12.406154 30.267077 8.940308 8.96 22.035692 13.784615 36.470154 11.716923l84.65723-10.299077c14.454154-2.067692 28.199385-14.454154 32.33477-28.219076l11.008-48.167385c6.872615-4.135385 27.510154-12.386462 68.135384-13.056 42.653538 1.378462 61.932308 9.649231 68.135385 13.075692l12.386461 48.187077c1.378462 5.513846 4.804923 11.697231 9.649231 16.521846 6.183385 6.183385 14.434462 10.318769 21.326769 11.697231l84.637539 10.338462c12.406154 1.378462 25.462154-2.048 33.732923-10.31877 9.629538-8.251077 14.434462-19.948308 14.434461-32.334769v-50.924308c0.669538-15.832615-8.270769-34.402462-21.346461-47.497846z" fill="#FFFFFF" p-id="4028"></path></svg>