<?xml version="1.0" standalone="no"?><!DOCTYPE svg PUBLIC "-//W3C//DTD SVG 1.1//EN" "http://www.w3.org/Graphics/SVG/1.1/DTD/svg11.dtd"><svg t="1692422391367" class="icon" viewBox="0 0 1024 1024" version="1.1" xmlns="http://www.w3.org/2000/svg" p-id="5721" xmlns:xlink="http://www.w3.org/1999/xlink" width="200" height="200"><path d="M791.210667 930.816H238.933333a170.666667 170.666667 0 0 1-170.666666-170.666667V257.365333a170.666667 170.666667 0 0 1 170.666666-170.666666h184.661334a170.666667 170.666667 0 0 1 138.922666 71.68l15.701334 22.186666a102.4 102.4 0 0 0 83.285333 42.666667h129.365333a170.666667 170.666667 0 0 1 170.666667 170.666667v366.250666a170.666667 170.666667 0 0 1-170.325333 170.666667zM238.933333 154.965333a102.4 102.4 0 0 0-102.4 102.4v502.784a102.4 102.4 0 0 0 102.4 102.4h552.277334a102.4 102.4 0 0 0 102.4-102.4V393.898667a102.4 102.4 0 0 0-102.4-102.4h-129.365334a170.666667 170.666667 0 0 1-138.922666-71.338667l-15.701334-22.186667a102.4 102.4 0 0 0-83.285333-43.008z" fill="#282424" p-id="5722"></path><path d="M927.744 443.733333H102.4a34.133333 34.133333 0 0 1 0-68.266666h825.344a34.133333 34.133333 0 0 1 0 68.266666z" fill="#282424" p-id="5723"></path></svg>