<?xml version="1.0" standalone="no"?><!DOCTYPE svg PUBLIC "-//W3C//DTD SVG 1.1//EN" "http://www.w3.org/Graphics/SVG/1.1/DTD/svg11.dtd"><svg t="1692354970212" class="icon" viewBox="0 0 1024 1024" version="1.1" xmlns="http://www.w3.org/2000/svg" p-id="24219" xmlns:xlink="http://www.w3.org/1999/xlink" width="40" height="40"><path d="M513.024 516.096m-507.904 0a507.904 507.904 0 1 0 1015.808 0 507.904 507.904 0 1 0-1015.808 0Z" fill="rgba(80,217,227,0.15)" p-id="24220"></path><path d="M476.16 571.392c37.888-21.504 64-64 64-111.616 0-71.168-59.392-131.072-131.072-131.072S279.04 388.096 279.04 459.264c0 47.616 26.112 90.624 64 111.616-69.12 23.552-123.904 88.064-133.12 164.352h401.92c-11.776-75.776-64-140.288-135.68-163.84z" fill="rgba(80,217,227,1)" p-id="24221"></path><path d="M680.96 490.496c37.888-21.504 64-64 64-111.616 0-71.168-59.392-131.072-131.072-131.072-59.392 0-107.008 33.28-123.904 85.504 43.008 21.504 71.168 71.168 71.168 123.904 0 47.616-21.504 88.064-59.392 109.568 45.056 16.896 78.336 50.176 102.4 90.624h211.968c-11.264-76.8-63.488-138.24-135.168-166.912z" fill="rgba(80,217,227,1)" p-id="24222"></path></svg>