<?xml version="1.0" standalone="no"?><!DOCTYPE svg PUBLIC "-//W3C//DTD SVG 1.1//EN" "http://www.w3.org/Graphics/SVG/1.1/DTD/svg11.dtd"><svg t="1696308163666" class="icon" viewBox="0 0 1024 1024" version="1.1" xmlns="http://www.w3.org/2000/svg" p-id="4192" xmlns:xlink="http://www.w3.org/1999/xlink" width="200" height="200"><path d="M749.15368 474.507321c-151.770356 0-274.746338 122.97598-274.746338 274.746338 0 151.770356 122.97598 274.746338 274.746338 274.746338 151.770356 0 274.746338-122.97598 274.746338-274.746338C1023.900018 597.483301 900.924036 474.507321 749.15368 474.507321zM907.922669 862.03163c0 40.991994-78.584651 50.390158-152.370239 50.390158-73.785589 0-153.370044-9.398164-153.370044-50.390158l0-11.397774c0-30.194103 54.389377-60.788127 100.580355-77.384886 3.399336-1.199766 19.396212-9.998047 10.397969-33.393478-22.995509-23.395431-40.19215-61.38801-40.19215-98.780707 0-57.18883 37.792619-87.182972 82.183948-87.182972 44.191369 0 82.383909 29.994142 82.383909 87.182972 0 37.192736-17.396602 74.985354-40.19215 98.580746l0.199961 0c-8.798282 26.594806 5.198985 32.993556 7.398555 33.593439 48.59051 15.996876 103.179847 46.390939 103.179847 77.384886L907.922669 862.03163 907.922669 862.03163z" fill="#13227a" p-id="4193"></path><path d="M411.019723 410.91974l0-373.926965-373.926965 0 0 373.926965 67.986721 0 0 67.986721 67.986721 0 0-67.986721L411.019723 410.91974zM105.079479 342.933019l0-237.953524 237.953524 0 0 237.953524L105.079479 342.933019z" fill="#13227a" p-id="4194"></path><path d="M173.0662 172.966217l101.980082 0 0 101.980082-101.980082 0 0-101.980082Z" fill="#13227a" p-id="4195"></path><path d="M614.979886 36.992775l0 373.926965 373.926965 0 0-373.926965L614.979886 36.992775zM920.920131 342.933019l-237.953524 0 0-237.953524 237.953524 0L920.920131 342.933019z" fill="#13227a" p-id="4196"></path><path d="M750.953328 172.966217l101.980082 0 0 101.980082-101.980082 0 0-101.980082Z" fill="#13227a" p-id="4197"></path><path d="M37.092757 478.906462l67.986721 0 0 67.986721-67.986721 0 0-67.986721Z" fill="#13227a" p-id="4198"></path><path d="M173.0662 478.906462l67.986721 0 0 67.986721-67.986721 0 0-67.986721Z" fill="#13227a" p-id="4199"></path><path d="M241.05292 614.879903l-203.960163 0 0 373.926965 373.926965 0 0-373.926965-101.980082 0 0-67.986721-67.986721 0L241.05292 614.879903zM343.033002 682.866625l0 237.953524-237.953524 0 0-237.953524L343.033002 682.866625z" fill="#13227a" p-id="4200"></path><path d="M173.0662 750.853345l101.980082 0 0 101.980082-101.980082 0 0-101.980082Z" fill="#13227a" p-id="4201"></path><path d="M479.006444 70.986136l67.986721 0 0 101.980082-67.986721 0 0-101.980082Z" fill="#13227a" p-id="4202"></path><path d="M479.006444 240.952938l67.986721 0 0 67.986721-67.986721 0 0-67.986721Z" fill="#13227a" p-id="4203"></path><path d="M479.006444 376.92638l67.986721 0 0 101.980082-67.986721 0 0-101.980082Z" fill="#13227a" p-id="4204"></path><path d="M309.039642 478.906462l169.966802 0 0 67.986721-169.966802 0 0-67.986721Z" fill="#13227a" p-id="4205"></path></svg>