<?xml version="1.0" standalone="no"?><!DOCTYPE svg PUBLIC "-//W3C//DTD SVG 1.1//EN" "http://www.w3.org/Graphics/SVG/1.1/DTD/svg11.dtd"><svg t="1693402855186" class="icon" viewBox="0 0 1024 1024" version="1.1" xmlns="http://www.w3.org/2000/svg" p-id="5035" xmlns:xlink="http://www.w3.org/1999/xlink" width="200" height="200"><path d="M89.6 90.154667a42.666667 42.666667 0 0 1 60.373333 0l784.384 784.426666a42.666667 42.666667 0 0 1-60.330666 60.330667L89.642667 150.485333a42.666667 42.666667 0 0 1 0-60.330666z" fill="#cdcdcd" p-id="5036"></path><path d="M226.688 287.104a316.501333 316.501333 0 0 0-32.512 140.117333v168.704c0 17.066667-4.138667 33.92-12.117333 49.066667l-57.301334 108.757333a59.733333 59.733333 0 0 0 52.864 87.552h186.282667a149.248 149.248 0 0 0 297.856 0h119.125333l-85.333333-85.333333H220.032l37.546667-71.210667a190.592 190.592 0 0 0 21.930666-88.832v-168.704c0-26.197333 4.352-51.413333 12.373334-74.922666L226.688 287.104z m286.165333 608.853333a63.914667 63.914667 0 0 1-63.232-54.613333H576a63.914667 63.914667 0 0 1-63.189333 54.613333zM744.490667 563.541333v-136.32a232.490667 232.490667 0 0 0-341.632-205.312L340.48 159.616a315.946667 315.946667 0 0 1 109.696-44.202667v-10.922666a61.781333 61.781333 0 0 1 123.562667 0v10.922666c145.92 28.757333 256 157.44 256 311.808v221.653334l-85.333334-85.333334z" fill="#cdcdcd" p-id="5037"></path></svg>