<?xml version="1.0" standalone="no"?><!DOCTYPE svg PUBLIC "-//W3C//DTD SVG 1.1//EN" "http://www.w3.org/Graphics/SVG/1.1/DTD/svg11.dtd"><svg t="1695022651095" class="icon" viewBox="0 0 1024 1024" version="1.1" xmlns="http://www.w3.org/2000/svg" p-id="6501" xmlns:xlink="http://www.w3.org/1999/xlink" width="200" height="200"><path d="M331.008 777.898667l-43.264-187.904c-2.645333-11.434667 8.448-21.162667 19.456-17.152l42.410667 15.616c6.229333 2.304 13.226667 0.170667 17.066666-5.205334L496.64 402.773333c5.888-8.192 18.005333-8.192 23.893333 0l129.877334 180.48c3.84 5.376 10.837333 7.509333 17.066666 5.205334l42.410667-15.616c11.008-4.010667 22.101333 5.717333 19.456 17.152L686.08 777.898667c-1.536 6.656-7.509333 11.434667-14.336 11.434666H345.429333c-6.912 0-12.885333-4.778667-14.421333-11.434666z" fill="#64EDAC" p-id="6502"></path><path d="M508.586667 161.536m-31.232 0a31.232 31.232 0 1 0 62.464 0 31.232 31.232 0 1 0-62.464 0Z" fill="#333C4F" p-id="6503"></path><path d="M879.189333 371.2m-31.232 0a31.232 31.232 0 1 0 62.464 0 31.232 31.232 0 1 0-62.464 0Z" fill="#333C4F" p-id="6504"></path><path d="M144.810667 371.2m-31.232 0a31.232 31.232 0 1 0 62.464 0 31.232 31.232 0 1 0-62.464 0Z" fill="#333C4F" p-id="6505"></path><path d="M855.637333 427.008a34.141867 34.141867 0 0 0-34.389333-6.4l-125.866667 46.421333-159.061333-221.013333c-6.4-8.874667-16.725333-14.165333-27.733333-14.165333s-21.333333 5.290667-27.733334 14.165333l-159.061333 221.013333-125.866667-46.421333c-11.776-4.352-24.917333-1.877333-34.389333 6.4s-13.482667 21.077333-10.666667 33.28l93.610667 406.954667c3.584 15.530667 17.322667 26.453333 33.28 26.453333h461.653333a34.218667 34.218667 0 0 0 33.28-26.453333l93.610667-406.954667c2.816-12.202667-1.28-25.002667-10.666667-33.28zM745.898667 679.253333h-58.282667l25.429333-146.005333 72.618667-26.794667-39.765333 172.8zM508.586667 324.352l138.154666 192-28.416 162.986667H401.152l-30.549333-163.157334L508.586667 324.352zM304.384 533.333333l27.306667 145.92h-60.416l-39.765334-172.8 72.874667 26.88z m0.512 292.096l-17.92-77.909333H730.112l-17.92 77.909333H304.896z" fill="#333C4F" p-id="6506"></path></svg>