<?xml version="1.0" standalone="no"?><!DOCTYPE svg PUBLIC "-//W3C//DTD SVG 1.1//EN" "http://www.w3.org/Graphics/SVG/1.1/DTD/svg11.dtd"><svg t="1694598954377" class="icon" viewBox="0 0 1024 1024" version="1.1" xmlns="http://www.w3.org/2000/svg" p-id="6632" xmlns:xlink="http://www.w3.org/1999/xlink" width="200" height="200"><path d="M204.8 1024h614.4a102.4 102.4 0 0 0 102.4-102.4V277.1968a51.2 51.2 0 0 0-15.0016-36.1984L680.6016 15.0016A51.2 51.2 0 0 0 644.4032 0H204.8a102.4 102.4 0 0 0-102.4 102.4v819.2a102.4 102.4 0 0 0 102.4 102.4z" fill="#A6ADC2" p-id="6633"></path><path d="M665.6 0a51.2 51.2 0 0 1 10.3936 6.2976l4.608 4.096 225.9968 225.9968a51.2 51.2 0 0 1 10.3936 15.0016H768a102.4 102.4 0 0 1-102.144-94.72L665.6 148.992V0z" fill="#D2D6E0" p-id="6634"></path><path d="M486.4 629.6576c18.7392 0 34.2016 13.4656 36.352 30.7712l0.2048 4.096v17.408c0 19.2512-16.384 34.8672-36.5568 34.8672a35.9936 35.9936 0 0 1-36.352-30.7712l-0.2048-4.096v-17.408c0-19.2512 16.384-34.8672 36.5568-34.8672zM486.4 307.2C557.056 307.2 614.4 361.8304 614.4 429.2096c0 56.832-32.768 94.8224-89.088 115.456l-2.6112 0.9216 0.256 26.2144c0 19.2512-16.384 34.816-36.5568 34.816-20.1728 0-36.5568-15.5648-36.5568-34.816l-0.256-27.8016 0.256-7.7312 0.6144-6.5024c0.3072-2.0992 0.6656-4.1472 1.1264-6.3488 3.9936-19.3536 15.6672-34.8672 36.1984-40.2944l1.6896-0.3584 5.888-1.8432c30.4128-10.1376 44.032-24.0128 45.7216-46.6944l0.1536-5.0176c0-28.8768-24.576-52.2752-54.8352-52.2752-28.5184 0-51.968 20.736-54.6304 47.2576l-0.2048 5.0176c0 19.2512-16.384 34.816-36.608 34.816-20.1728 0-36.5568-15.5648-36.5568-34.816C358.4 361.8304 415.744 307.2 486.4 307.2z" fill="#FFFFFF" p-id="6635"></path></svg>